<svg width="1114" height="143" viewBox="0 0 1114 143" fill="none" xmlns="http://www.w3.org/2000/svg">
<path d="M99.8262 28.6399L90.7477 130.332L49.9391 141.644L9.24297 130.347L0.173828 28.6399H99.8262Z" fill="#E44D26"/>
<path d="M50 132.997L82.9754 123.856L90.7332 36.9558H50V132.997Z" fill="#F16529"/>
<path d="M32.3516 61.9042H50V49.4302H18.7176L19.016 52.7767L22.0824 87.1518H50V74.6778H33.4918L32.3516 61.9042ZM35.1633 93.389H22.6399L24.3875 112.975L49.9426 120.068L50 120.052V107.074L49.9453 107.089L36.0516 103.337L35.1633 93.389Z" fill="#EBEBEB"/>
<path d="M9.44531 1H15.7852V7.26298H21.5848V1H27.925V19.9659H21.5852V13.615H15.7855V19.9659H9.4457V1H9.44531ZM36.2617 7.28954H30.6813V1H48.1867V7.28954H42.6027V19.9659H36.2629V7.28954H36.2625H36.2617ZM50.9648 1H57.5754L61.6418 7.6641L65.7043 1H72.3176V19.9659H66.0035V10.5653L61.6418 17.3087H61.5324L57.168 10.5653V19.9659H50.9648V1ZM75.4727 1H81.8145V13.697H90.7301V19.9659H75.4723V1H75.4727Z" fill="black"/>
<path d="M49.9571 87.1518H65.3192L63.8707 103.33L49.9567 107.085V120.062L75.5321 112.975L75.7196 110.868L78.6516 78.0274L78.9559 74.6778H49.9571V87.1518ZM49.9571 61.8737V61.9042H80.091L80.341 59.1006L80.9098 52.7767L81.2078 49.4302H49.9571V61.8741V61.8737Z" fill="white"/>
<path d="M240.438 142.639L199.335 131.182L190.176 28.032H290.824L281.655 131.166L240.438 142.639Z" fill="#264DE4"/>
<path d="M273.805 124.599L281.641 36.4658H240.5V133.869L273.805 124.599Z" fill="#2965F1"/>
<path d="M211.174 74.7229L212.303 87.3738H240.5V74.7229H211.174ZM208.905 49.1172L210.05 61.7681H240.5V49.1172H208.905ZM240.5 107.579L240.445 107.593L226.412 103.789L225.515 93.6995H212.866L214.631 113.563L240.442 120.757L240.5 120.741V107.579Z" fill="#EBEBEB"/>
<path d="M213.863 0H229.123V6.40767H220.245V12.8153H229.124V19.2226H213.863V0ZM232.176 0H247.437V5.57185H238.558V6.68614H247.437V19.5015H232.176V13.6504H241.055V12.5361H232.175V0H232.176ZM250.489 0H265.75V5.57185H256.871V6.68614H265.75V19.5015H250.489V13.6504H259.368V12.5361H250.49V0H250.489Z" fill="black"/>
<path d="M269.745 74.7229L272.02 49.1172H240.457V61.7681H258.211L257.065 74.7229H240.457V87.3738H255.972L254.509 103.781L240.456 107.59V120.751L266.287 113.563L266.477 111.426L269.438 78.12L269.745 74.7229Z" fill="white"/>
<path d="M381 21H481V121H381V21Z" fill="#F7DF1E"/>
<path d="M407.294 104.567L414.946 99.936C416.423 102.554 417.766 104.768 420.987 104.768C424.075 104.768 426.022 103.561 426.022 98.8622V66.9098H435.42V98.995C435.42 108.728 429.714 113.159 421.39 113.159C413.872 113.159 409.509 109.265 407.293 104.566M440.524 103.56L448.175 99.1301C450.19 102.42 452.808 104.836 457.439 104.836C461.333 104.836 463.816 102.889 463.816 100.204C463.816 96.9821 461.265 95.8407 456.969 93.9618L454.62 92.954C447.84 90.0684 443.343 86.4434 443.343 78.7911C443.343 71.7426 448.713 66.3723 457.104 66.3723C463.078 66.3723 467.374 68.4536 470.462 73.8907L463.145 78.5899C461.533 75.7036 459.789 74.5625 457.104 74.5625C454.351 74.5625 452.606 76.3079 452.606 78.5899C452.606 81.409 454.351 82.5508 458.379 84.2961L460.728 85.3028C468.716 88.7266 473.213 92.2168 473.213 100.07C473.213 108.529 466.568 113.16 457.64 113.16C448.914 113.16 443.275 108.998 440.523 103.561" fill="black"/>
<g clip-path="url(#clip0_8_86)">
<path d="M651.58 120.711C651.028 120.711 650.513 120.564 650.035 120.307L645.141 117.399C644.405 116.994 644.773 116.847 644.994 116.773C645.987 116.442 646.171 116.368 647.202 115.78C647.312 115.706 647.459 115.743 647.57 115.816L651.323 118.061C651.47 118.135 651.654 118.135 651.764 118.061L666.445 109.559C666.592 109.485 666.666 109.338 666.666 109.154V92.1859C666.666 92.0015 666.592 91.8547 666.445 91.7808L651.764 83.3152C651.617 83.2414 651.433 83.2414 651.323 83.3152L636.642 91.7808C636.494 91.8544 636.421 92.0385 636.421 92.1856V109.154C636.421 109.301 636.494 109.485 636.642 109.559L640.652 111.878C642.823 112.982 644.184 111.694 644.184 110.405V93.6579C644.184 93.4372 644.368 93.2162 644.626 93.2162H646.502C646.723 93.2162 646.944 93.4003 646.944 93.6579V110.405C646.944 113.313 645.362 115.006 642.602 115.006C641.756 115.006 641.094 115.006 639.217 114.086L635.354 111.878C634.397 111.326 633.808 110.295 633.808 109.191V92.2226C633.808 91.1184 634.397 90.0875 635.354 89.5356L650.035 81.0331C650.955 80.5178 652.206 80.5178 653.126 81.0331L667.806 89.5356C668.763 90.0875 669.352 91.1184 669.352 92.2226V109.191C669.352 110.295 668.763 111.326 667.806 111.878L653.126 120.38C652.647 120.601 652.095 120.711 651.58 120.711H651.58ZM656.106 109.044C649.667 109.044 648.342 106.099 648.342 103.596C648.342 103.375 648.526 103.154 648.784 103.154H650.697C650.918 103.154 651.102 103.302 651.102 103.523C651.396 105.473 652.242 106.43 656.143 106.43C659.233 106.43 660.558 105.731 660.558 104.074C660.558 103.117 660.19 102.418 655.37 101.94C651.359 101.535 648.857 100.652 648.857 97.4493C648.857 94.4678 651.36 92.7009 655.554 92.7009C660.264 92.7009 662.582 94.3207 662.876 97.8538C662.876 97.9646 662.839 98.0748 662.766 98.1853C662.692 98.2589 662.582 98.3324 662.471 98.3324H660.558C660.374 98.3324 660.19 98.1853 660.153 98.0012C659.712 95.977 658.571 95.3143 655.554 95.3143C652.169 95.3143 651.764 96.4923 651.764 97.3754C651.764 98.4429 652.242 98.7742 656.805 99.363C661.331 99.9522 663.465 100.799 663.465 103.964C663.428 107.203 660.779 109.044 656.106 109.044Z" fill="#539E43"/>
<path d="M606.028 54.3477C606.028 53.6853 605.66 53.0592 605.072 52.728L589.471 43.7471C589.213 43.5996 588.919 43.5261 588.625 43.4891H588.477C588.183 43.4891 587.889 43.5996 587.631 43.7471L572.03 52.728C571.441 53.0592 571.074 53.685 571.074 54.3477L571.11 78.4933C571.11 78.8245 571.294 79.1557 571.589 79.3031C571.883 79.4872 572.251 79.4872 572.509 79.3031L581.781 74.0028C582.37 73.6716 582.738 73.0458 582.738 72.3834V61.0834C582.738 60.421 583.105 59.7952 583.694 59.464L587.631 57.1818C587.926 56.9977 588.257 56.9238 588.588 56.9238C588.919 56.9238 589.25 56.9977 589.508 57.1818L593.445 59.464C594.034 59.7952 594.401 60.4207 594.401 61.0834V72.3834C594.401 73.0458 594.769 73.6716 595.358 74.0028L604.63 79.3031C604.773 79.3934 604.939 79.4412 605.109 79.4412C605.278 79.4412 605.444 79.3934 605.587 79.3031C605.881 79.1557 606.065 78.8245 606.065 78.4933L606.028 54.3477ZM681.016 21.1105C680.722 20.963 680.354 20.963 680.096 21.1105C679.802 21.2945 679.618 21.5888 679.618 21.92V45.8452C679.618 46.0659 679.507 46.2866 679.286 46.434C679.066 46.5442 678.845 46.5442 678.624 46.434L674.724 44.1888C674.438 44.0259 674.115 43.9403 673.786 43.9403C673.457 43.9403 673.133 44.0259 672.847 44.1888L657.246 53.2066C656.658 53.5379 656.29 54.1637 656.29 54.8261V72.8248C656.29 73.4872 656.658 74.1133 657.246 74.4445L672.847 83.4624C673.133 83.6252 673.457 83.7109 673.786 83.7109C674.115 83.7109 674.438 83.6252 674.724 83.4624L690.325 74.4445C690.914 74.1133 691.282 73.4875 691.282 72.8248V27.9566C691.282 27.2573 690.914 26.6318 690.325 26.3003L681.016 21.1105H681.016ZM679.581 66.899C679.581 67.0831 679.507 67.2302 679.36 67.3038L674.025 70.3955C673.95 70.4319 673.869 70.4508 673.786 70.4508C673.703 70.4508 673.621 70.4319 673.546 70.3955L668.211 67.3038C668.064 67.2302 667.99 67.0461 667.99 66.899V60.7152C667.99 60.5312 668.064 60.384 668.211 60.3105L673.546 57.2184C673.621 57.1821 673.703 57.1632 673.786 57.1632C673.869 57.1632 673.95 57.1821 674.025 57.2184L679.36 60.3105C679.507 60.3837 679.581 60.5681 679.581 60.7152V66.899ZM732.933 60.5681C733.522 60.2369 733.853 59.6111 733.853 58.9484V54.5684C733.853 53.906 733.485 53.2802 732.933 52.949L717.442 43.9681C717.157 43.8052 716.833 43.7196 716.504 43.7196C716.175 43.7196 715.852 43.8052 715.566 43.9681L699.965 52.9856C699.376 53.3168 699.008 53.9426 699.008 54.6051V72.6041C699.008 73.2665 699.376 73.8923 699.965 74.2235L715.455 83.0573C716.044 83.3885 716.743 83.3885 717.295 83.0573L726.678 77.8312C726.972 77.6837 727.156 77.3525 727.156 77.0213C727.156 76.6901 726.972 76.3589 726.678 76.2114L711.003 67.1936C710.709 67.0095 710.525 66.7152 710.525 66.384V60.7525C710.525 60.4213 710.709 60.0901 711.003 59.9426L715.897 57.1452C716.04 57.055 716.206 57.0071 716.375 57.0071C716.544 57.0071 716.71 57.055 716.853 57.1452L721.747 59.9426C722.042 60.1267 722.225 60.421 722.225 60.7525V65.1694C722.225 65.5006 722.409 65.8318 722.704 65.9789C722.847 66.0692 723.013 66.117 723.182 66.117C723.352 66.117 723.517 66.0692 723.661 65.9789L732.933 60.5681Z" fill="#333333"/>
<path d="M716.265 59.7212C716.319 59.6852 716.383 59.666 716.449 59.666C716.514 59.666 716.578 59.6852 716.633 59.7212L719.613 61.4512C719.723 61.5251 719.797 61.6353 719.797 61.7824V65.2426C719.797 65.3897 719.724 65.5002 719.613 65.5738L716.633 67.3037C716.578 67.3397 716.514 67.359 716.449 67.359C716.383 67.359 716.319 67.3397 716.265 67.3037L713.285 65.5738C713.174 65.5002 713.101 65.3897 713.101 65.2426V61.7827C713.101 61.6353 713.174 61.5247 713.285 61.4515L716.265 59.7212Z" fill="#539E43"/>
<path d="M647.643 52.9856L632.079 44.0416C631.926 43.9644 631.766 43.9027 631.601 43.8575L614.16 73.7454C614.304 73.9219 614.479 74.0714 614.675 74.1872L630.239 83.1314C630.681 83.3891 631.196 83.4626 631.674 83.3152L648.048 53.354C647.938 53.2069 647.79 53.0961 647.643 52.9859V52.9856Z" fill="url(#paint0_linear_8_86)"/>
<path fill-rule="evenodd" clip-rule="evenodd" d="M629.724 40.7655L629.504 40.876H629.798L629.724 40.7655Z" fill="url(#paint1_linear_8_86)"/>
<path fill-rule="evenodd" clip-rule="evenodd" d="M647.68 74.1499C648.122 73.8923 648.453 73.4505 648.6 72.9722L631.527 43.8206C631.085 43.747 630.607 43.7837 630.202 44.0413L614.749 52.949L631.416 83.3518C631.659 83.3121 631.894 83.2378 632.115 83.1311L647.68 74.1502L647.68 74.1499Z" fill="url(#paint2_linear_8_86)"/>
<path fill-rule="evenodd" clip-rule="evenodd" d="M649.115 73.8556L649.005 73.6715V73.9292L649.115 73.8556H649.115Z" fill="url(#paint3_linear_8_86)"/>
<path fill-rule="evenodd" clip-rule="evenodd" d="M647.68 74.15L632.153 83.0942C631.933 83.206 631.697 83.2806 631.454 83.3149L631.748 83.8671L648.968 73.8926V73.6716L648.526 72.9353C648.453 73.4506 648.122 73.8923 647.68 74.15Z" fill="url(#paint4_linear_8_86)"/>
<path fill-rule="evenodd" clip-rule="evenodd" d="M647.68 74.15L632.153 83.0942C631.933 83.206 631.697 83.2806 631.454 83.3149L631.748 83.8671L648.968 73.8926V73.6716L648.526 72.9353C648.453 73.4506 648.122 73.8923 647.68 74.15Z" fill="url(#paint5_linear_8_86)"/>
</g>
<path d="M1086.48 31.1312H1031.57C1029.8 31.1362 1028.1 31.8427 1026.85 33.0963C1025.59 34.35 1024.89 36.0489 1024.88 37.8218V98.3718C1024.89 100.145 1025.59 101.844 1026.85 103.097C1028.1 104.351 1029.8 105.058 1031.57 105.062H1067.73C1067.32 87.0687 1073.47 52.15 1086.48 31.1312Z" fill="#0F80CC"/>
<path d="M1084.48 33.0844H1031.57C1030.32 33.086 1029.11 33.5857 1028.22 34.4738C1027.34 35.3619 1026.84 36.5659 1026.83 37.8218V93.9531C1040.41 88.8336 1054.74 85.9994 1069.24 85.5656C1073.07 67.7338 1078.17 50.1961 1084.48 33.0844Z" fill="url(#paint6_linear_8_86)"/>
<path d="M1099.28 29.15C1095.53 25.7968 1090.97 27.1437 1086.47 31.1312C1085.8 31.725 1085.14 32.3812 1084.48 33.0843C1076.01 43.0961 1070.16 55.049 1067.44 67.875C1068.28 69.7059 1068.94 71.6124 1069.42 73.5687C1069.53 74.0062 1069.63 74.4187 1069.73 74.7687C1069.93 75.5968 1070.04 76.1343 1070.04 76.1343C1070.04 76.1343 1069.98 75.875 1069.69 75.0531L1069.51 74.5219C1069.47 74.423 1069.43 74.325 1069.39 74.2281C1068.89 73.0625 1067.51 70.6031 1066.89 69.5406C1066.37 71.0812 1065.9 72.5218 1065.52 73.825C1066.82 76.6157 1067.77 79.5539 1068.36 82.575C1068.36 82.575 1068.26 82.2156 1067.82 80.9656C1066.98 79.14 1066.04 77.3586 1065.01 75.6281C1064.35 77.3424 1064.06 79.1811 1064.18 81.0156C1064.87 82.3878 1065.39 83.8393 1065.73 85.3375C1066.77 89.3468 1067.49 94.2312 1067.49 94.2312L1067.56 95.0531C1067.42 98.3927 1067.49 101.737 1067.76 105.069C1067.91 108.367 1068.53 111.628 1069.58 114.756L1070.15 114.444C1068.84 109.742 1068.33 104.852 1068.65 99.9812C1069.24 89.6554 1071.28 79.4637 1074.71 69.7062C1080.99 53.1187 1089.71 39.8062 1097.68 33.4562C1090.41 40.0187 1080.57 61.2687 1077.63 69.1375C1074.52 77.2393 1072.16 85.6073 1070.58 94.1375C1072.47 89.3769 1076.15 85.5535 1080.84 83.5C1080.84 83.5 1084.7 78.7468 1089.2 71.9593C1086.29 72.5661 1083.42 73.3308 1080.59 74.25C1078.4 75.1687 1077.81 75.4812 1077.81 75.4812C1081.99 72.9665 1086.4 70.8658 1090.98 69.2094C1099.35 56.0375 1108.46 37.3343 1099.28 29.1343" fill="#003B57"/>
<path d="M903.731 61.1437C903.569 58.2125 904.384 55.4406 903.078 53.1625C899.819 47.4593 891.675 44.2031 875.381 44.2031V44.0375V44.2C857.459 44.2 849.803 47.4594 846.547 53.1594C845.44 55.6682 844.938 58.4021 845.081 61.1406C844.48 63.6467 844.206 66.2202 844.266 68.7969C844.753 72.3812 845.081 75.9656 845.569 79.2219C846.056 81.9906 849.969 84.1094 850.456 86.7219C851.434 93.7281 857.625 96.9844 875.544 96.9844V97.8H875.231V96.9844C891.522 96.9844 898.356 93.725 899.344 86.7219C899.656 84.1156 902.928 81.9969 903.406 79.2219C903.894 75.9625 904.059 72.3781 904.547 68.7969C904.543 66.2243 904.27 63.6592 903.731 61.1437Z" fill="#EFCCA3"/>
<path d="M874.569 63.75C877.234 63.9936 879.694 65.2823 881.413 67.3344C883.694 69.2906 887.441 70.5938 889.069 72.3844C891.051 74.028 892.568 76.1624 893.469 78.575C894.092 80.8593 894.42 83.2137 894.447 85.5812C894.447 86.3969 894.934 86.2344 896.238 85.5812C898.819 84.0058 901.129 82.0253 903.081 79.7156C902.594 82.4844 899.172 84.9281 898.847 87.5281C897.869 94.5344 891.034 97.9531 874.247 97.9531H875.225" fill="#CCAC8D"/>
<path d="M884.997 58.2126C885.65 60.3313 887.766 67.6626 883.531 65.2188C885.076 66.4323 886.119 68.1722 886.463 70.1063C886.667 71.1434 887.155 72.1036 887.872 72.8802C888.589 73.6569 889.507 74.2197 890.525 74.5063C893.339 74.9235 896.204 74.2212 898.506 72.5501C899.857 71.2554 900.783 69.5809 901.162 67.7483C901.54 65.9157 901.353 64.0114 900.625 62.2876C900.129 60.8839 899.232 59.6569 898.045 58.759C896.857 57.8612 895.432 57.3321 893.947 57.2376C890.875 56.4188 884.344 55.7688 884.997 58.2126Z" fill="#CCAC8D"/>
<path d="M893.306 72.0594C896.636 72.0594 899.334 69.3605 899.334 66.0313C899.334 62.7021 896.636 60.0032 893.306 60.0032C889.977 60.0032 887.278 62.7021 887.278 66.0313C887.278 69.3605 889.977 72.0594 893.306 72.0594Z" fill="black"/>
<path d="M891.675 64.8906C892.574 64.8906 893.303 64.1617 893.303 63.2625C893.303 62.3633 892.574 61.6344 891.675 61.6344C890.776 61.6344 890.047 62.3633 890.047 63.2625C890.047 64.1617 890.776 64.8906 891.675 64.8906Z" fill="white"/>
<path d="M884.019 65.7063C887.084 67.8567 889.922 70.3131 892.491 73.0376C895.422 76.7876 895.422 77.4375 895.422 77.4375L893.303 78.4157C891.719 75.3247 889.432 72.6488 886.625 70.6032C882.875 68.4844 882.391 66.6938 882.391 66.6938L884.019 65.7063Z" fill="#EFCCA3"/>
<path d="M874.734 63.75C871.929 63.9866 869.313 65.2654 867.403 67.3344C865.122 69.2906 861.05 70.5938 859.591 72.3844C857.558 74.017 855.986 76.1505 855.028 78.575C854.405 80.8593 854.076 83.2137 854.05 85.5812C854.05 86.3969 854.212 86.5594 852.094 85.5812C849.475 84.0584 847.156 82.0707 845.25 79.7156C845.738 82.4844 849.159 84.9281 849.484 87.5281C850.462 94.3719 857.297 97.7906 874.084 97.7906H875.225" fill="#CCAC8D"/>
<path d="M890.372 74.9906C888.503 72.5109 886.094 70.4888 883.328 69.0773C880.562 67.6659 877.511 66.9021 874.406 66.8438C871.305 66.9216 868.261 67.6938 865.498 69.1038C862.735 70.5137 860.323 72.5253 858.441 74.9906C857.187 76.2964 856.243 77.8676 855.678 79.5879C855.114 81.3081 854.944 83.1333 855.181 84.9281C855.181 99.4281 860.231 95.0281 863.653 96.8219C867.061 97.9589 870.685 98.2937 874.244 97.8C877.802 98.3012 881.428 97.9663 884.834 96.8219C888.256 95.0313 893.306 99.4281 893.306 84.9281C893.71 83.1591 893.653 81.3159 893.139 79.5756C892.625 77.8353 891.672 76.2564 890.372 74.9906Z" fill="#56332B"/>
<path d="M874.081 70.9187C873.958 73.6334 873.465 76.3187 872.616 78.9L874.406 78.4125L874.081 70.9187Z" fill="#442823"/>
<path d="M874.569 70.9187C874.692 73.6334 875.185 76.3187 876.034 78.9L874.244 78.4125L874.569 70.9187Z" fill="#442823"/>
<path d="M868.869 69.2907C868.216 67.6625 870.659 65.0563 874.572 65.0563C878.484 65.0563 880.925 67.6625 880.275 69.2907C879.625 70.9188 877.016 71.4094 874.572 71.4094C871.963 71.4063 869.519 70.9188 868.869 69.2907Z" fill="#56332B"/>
<path d="M874.569 70.9188C874.569 70.6063 876.85 70.6063 878.153 69.7781C878.153 69.7781 875.547 70.5938 875.056 70.2656C874.719 69.9674 874.49 69.5666 874.403 69.125C874.317 69.5666 874.087 69.9674 873.75 70.2656C873.263 70.5781 870.328 69.7781 870.328 69.7781C871.606 70.0603 872.86 70.4417 874.078 70.9188V72.2219C873.976 74.3447 874.081 76.4724 874.391 78.575C874.878 79.2281 874.703 74.0125 874.703 72.2219C874.588 71.7976 874.543 71.3575 874.569 70.9188Z" fill="black"/>
<path d="M874.569 80.2031C876.41 80.4488 878.153 81.1801 879.619 82.3219C878.345 80.6706 876.575 79.4713 874.569 78.9C872.268 79.3992 870.236 80.7358 868.866 82.65C870.472 81.2703 872.462 80.4162 874.569 80.2031Z" fill="#7F4A41"/>
<path d="M874.244 92.2499C871.688 92.1088 869.164 91.6156 866.744 90.7843C866.256 90.6218 865.766 90.9468 865.278 90.7843C861.341 89.6688 857.861 87.3301 855.341 84.1062V84.7593C855.341 99.2593 860.391 94.8593 863.813 96.6531C867.22 97.7901 870.845 98.1249 874.403 97.6312C877.961 98.1324 881.587 97.7975 884.994 96.6531C888.416 94.8624 893.466 99.2593 893.466 84.7593V83.2937C891.054 86.8352 887.487 89.429 883.375 90.6312C882.888 90.7937 882.072 90.4687 881.584 90.4687C879.258 91.4809 876.775 92.0835 874.244 92.2499Z" fill="#442823"/>
<path d="M867.566 84.4375C867.566 84.4375 865.775 89.65 867.078 91.9375L865.45 91.2844C865.984 88.9528 866.692 86.6642 867.566 84.4375ZM881.25 84.4375C881.25 84.4375 883.041 89.65 881.738 91.9375L883.375 91.2844C882.916 88.9321 882.203 86.6364 881.25 84.4375Z" fill="#442823"/>
<path d="M863.328 58.2125C862.675 60.3312 860.559 67.6625 864.794 65.2187C863.249 66.4322 862.206 68.1721 861.862 70.1062C861.658 71.1433 861.17 72.1035 860.453 72.8801C859.736 73.6568 858.818 74.2196 857.8 74.5062C854.984 74.9304 852.113 74.2324 849.806 72.5625C848.455 71.2678 847.529 69.5933 847.151 67.7607C846.773 65.9281 846.96 64.0238 847.687 62.3C848.183 60.8963 849.08 59.6693 850.268 58.7714C851.455 57.8736 852.88 57.3445 854.366 57.25C857.466 56.4187 863.981 55.7687 863.328 58.2125Z" fill="#CCAC8D"/>
<path d="M874.406 78.9001C876.426 79.4685 878.231 80.6232 879.594 82.2181C880.957 83.8129 881.816 85.7762 882.062 87.8594V87.5469C882.011 85.3832 881.225 83.3014 879.834 81.6436C878.442 79.9858 876.528 78.8508 874.406 78.425C872.271 78.8232 870.34 79.9504 868.944 81.6141C867.547 83.2779 866.772 85.3749 866.75 87.5469V87.8594C867.024 85.7859 867.893 83.8362 869.252 82.2461C870.61 80.6561 872.401 79.4939 874.406 78.9001Z" fill="black"/>
<path d="M875.95 69.2527C876.211 69.1854 876.313 68.7069 876.178 68.1838C876.043 67.6607 875.723 67.2911 875.462 67.3584C875.201 67.4256 875.099 67.9042 875.234 68.4272C875.369 68.9503 875.69 69.3199 875.95 69.2527Z" fill="#331712"/>
<path d="M873.246 68.4787C873.406 67.9628 873.327 67.4798 873.07 67.4001C872.813 67.3203 872.475 67.6739 872.315 68.1898C872.155 68.7058 872.233 69.1887 872.491 69.2685C872.748 69.3482 873.086 68.9946 873.246 68.4787Z" fill="#331712"/>
<path d="M855.347 72.0594C858.676 72.0594 861.375 69.3605 861.375 66.0313C861.375 62.7021 858.676 60.0032 855.347 60.0032C852.018 60.0032 849.319 62.7021 849.319 66.0313C849.319 69.3605 852.018 72.0594 855.347 72.0594Z" fill="black"/>
<path d="M856.975 64.8906C857.874 64.8906 858.603 64.1617 858.603 63.2625C858.603 62.3633 857.874 61.6344 856.975 61.6344C856.076 61.6344 855.347 62.3633 855.347 63.2625C855.347 64.1617 856.076 64.8906 856.975 64.8906Z" fill="white"/>
<path d="M876.187 66.0312C876.187 66.0312 874.559 66.6844 874.231 66.8469C873.545 66.6654 872.887 66.391 872.275 66.0312H876.187Z" fill="#7F4A41"/>
<path d="M864.312 65.7063C861.247 67.8567 858.409 70.3131 855.841 73.0376C852.909 76.7876 852.909 77.4375 852.909 77.4375L855.028 78.4157C856.612 75.3247 858.899 72.6488 861.706 70.6032C865.456 68.4844 865.941 66.6938 865.941 66.6938L864.312 65.7063Z" fill="#EFCCA3"/>
<path d="M852.412 54.7907C851.277 57.7964 849.151 60.3252 846.384 61.9594C848.112 61.7546 849.697 60.8995 850.817 59.5678C851.937 58.2362 852.507 56.528 852.412 54.7907ZM895.587 54.7907C896.723 57.7964 898.849 60.3252 901.616 61.9594C899.888 61.7546 898.303 60.8995 897.183 59.5678C896.063 58.2362 895.493 56.528 895.587 54.7907ZM884.344 64.2375C881.725 61.7324 878.339 60.1824 874.731 59.8375H875.219C873.415 59.8158 871.628 60.2 869.993 60.9616C868.357 61.7232 866.913 62.8428 865.769 64.2375C868.457 62.1097 871.79 60.9602 875.219 60.9782C878.5 61.2141 881.655 62.341 884.344 64.2375ZM879.456 55.2782C878.264 53.7098 876.514 52.6602 874.569 52.3469H875.056C874.081 52.3799 873.132 52.6679 872.303 53.1823C871.474 53.6966 870.794 54.4192 870.331 55.2782C871.567 53.9795 873.264 53.2186 875.056 53.1594C875.898 53.1792 876.726 53.3785 877.485 53.7438C878.244 54.1092 878.916 54.6323 879.456 55.2782ZM855.347 76.4563C853.639 77.3359 851.671 77.5679 849.806 77.1094H849.156C847.866 75.7804 846.916 74.1594 846.387 72.3844C847.064 74.0902 848.376 75.4674 850.046 76.2266C851.717 76.9859 853.617 77.0682 855.347 76.4563ZM893.144 76.4563C894.851 77.3359 896.819 77.5679 898.684 77.1094H898.031C898.99 76.7255 899.82 76.0779 900.425 75.2417C901.031 74.4054 901.387 73.4148 901.453 72.3844C901.203 73.2161 900.783 73.9871 900.221 74.6493C899.659 75.3114 898.966 75.8504 898.187 76.2326C897.407 76.6148 896.556 76.832 895.688 76.8705C894.821 76.9089 893.954 76.7679 893.144 76.4563Z" fill="#CCAC8D"/>
<path d="M859.094 54.4656C861.421 54.0087 863.823 54.1158 866.1 54.7781C869.031 55.7563 866.753 59.6656 867.241 59.8281C868.18 58.9726 869.29 58.3267 870.498 57.9333C871.706 57.54 872.984 57.4083 874.247 57.5469C879.788 57.8594 880.438 60.3156 881.253 59.8281C882.069 59.5156 880.438 52.9844 888.909 54.4531C888.909 54.4531 880.275 52.1719 880.6 58.3625C878.817 57.1976 876.745 56.5515 874.616 56.4963C872.487 56.4411 870.385 56.9791 868.544 58.05C868.544 58.05 870.334 52.0219 859.094 54.4656ZM856.813 46C856.813 46 849.313 55.2875 848.341 58.8687C847.2 62.4531 846.384 77.4406 845.409 79.5594L841.988 64.8906L848.341 49.5781L856.813 46ZM891.675 46C891.675 46 899.175 55.2875 900.147 58.8687C901.288 62.4531 902.103 77.4406 903.078 79.5594L906.5 64.8906L900.147 49.5781L891.675 46Z" fill="#CCAC8D"/>
<path d="M891.188 46C895.735 49.8632 899.259 54.7877 901.45 60.3375C903.731 67.9938 902.753 77.4438 904.547 78.5844C907.153 80.2125 909.922 70.4375 910.9 69.4625C912.366 67.8344 917.416 63.5969 917.744 62.7844C918.072 61.9719 907.644 50.5657 902.919 48.2844C897.703 45.6657 890.875 45.3407 891.188 46Z" fill="#56332B"/>
<path d="M898.031 50.0625C903.799 57.926 907.038 67.3582 907.319 77.1063L911.069 69.45C908.257 62.0784 903.798 55.447 898.031 50.0625Z" fill="#442823"/>
<path d="M856.813 46C852.265 49.8632 848.741 54.7877 846.55 60.3375C844.269 67.9938 845.247 77.4438 843.453 78.5844C840.847 80.2125 838.078 70.4375 837.1 69.4625C835.634 67.8344 830.584 63.5969 830.256 62.7844C829.928 61.9719 840.356 50.5657 845.081 48.2844C850.297 45.6657 857.125 45.3407 856.813 46Z" fill="#56332B"/>
<path d="M849.969 50.0625C844.201 57.926 840.962 67.3582 840.681 77.1063L836.938 69.4375C839.749 62.071 844.206 55.444 849.969 50.0625Z" fill="#442823"/>
<path d="M844.756 77.2718C845.014 79.006 845.623 80.6692 846.547 82.1593C847.688 83.3 846.859 81.1812 846.859 81.1812C846.859 81.1812 845.719 80.5281 845.881 75.8062C846.044 71.0843 844.756 77.2718 844.756 77.2718ZM903.406 77.2718C903.149 79.006 902.539 80.6692 901.616 82.1593C900.475 83.3 901.303 81.1812 901.303 81.1812C901.303 81.1812 902.444 80.5281 902.281 75.8062C902.103 71.2437 903.406 77.2718 903.406 77.2718Z" fill="#CCAC8D"/>
<path d="M867.403 74.9906C867.672 74.9906 867.891 74.7724 867.891 74.5031C867.891 74.2339 867.672 74.0156 867.403 74.0156C867.134 74.0156 866.916 74.2339 866.916 74.5031C866.916 74.7724 867.134 74.9906 867.403 74.9906Z" fill="#442823"/>
<path d="M864.144 78.4125C864.413 78.4125 864.631 78.1942 864.631 77.925C864.631 77.6558 864.413 77.4375 864.144 77.4375C863.875 77.4375 863.656 77.6558 863.656 77.925C863.656 78.1942 863.875 78.4125 864.144 78.4125Z" fill="#442823"/>
<path d="M863.166 74.9906C863.435 74.9906 863.653 74.7724 863.653 74.5031C863.653 74.2339 863.435 74.0156 863.166 74.0156C862.896 74.0156 862.678 74.2339 862.678 74.5031C862.678 74.7724 862.896 74.9906 863.166 74.9906Z" fill="#442823"/>
<path d="M880.762 74.9906C881.032 74.9906 881.25 74.7724 881.25 74.5031C881.25 74.2339 881.032 74.0156 880.762 74.0156C880.493 74.0156 880.275 74.2339 880.275 74.5031C880.275 74.7724 880.493 74.9906 880.762 74.9906Z" fill="#442823"/>
<path d="M883.856 78.4125C884.125 78.4125 884.344 78.1942 884.344 77.925C884.344 77.6558 884.125 77.4375 883.856 77.4375C883.587 77.4375 883.369 77.6558 883.369 77.925C883.369 78.1942 883.587 78.4125 883.856 78.4125Z" fill="#442823"/>
<path d="M884.834 74.9906C885.104 74.9906 885.322 74.7724 885.322 74.5031C885.322 74.2339 885.104 74.0156 884.834 74.0156C884.565 74.0156 884.347 74.2339 884.347 74.5031C884.347 74.7724 884.565 74.9906 884.834 74.9906Z" fill="#442823"/>
<defs>
<linearGradient id="paint0_linear_8_86" x1="628.826" y1="65.6674" x2="671.356" y2="42.5689" gradientUnits="userSpaceOnUse">
<stop offset="0.1376" stop-color="#41873F"/>
<stop offset="0.4032" stop-color="#54A044"/>
<stop offset="0.7136" stop-color="#66B848"/>
<stop offset="0.9081" stop-color="#6CC04A"/>
</linearGradient>
<linearGradient id="paint1_linear_8_86" x1="616.52" y1="40.7803" x2="645.176" y2="40.7803" gradientUnits="userSpaceOnUse">
<stop offset="0.09192" stop-color="#6CC04A"/>
<stop offset="0.2864" stop-color="#66B848"/>
<stop offset="0.5968" stop-color="#54A044"/>
<stop offset="0.8624" stop-color="#41873F"/>
</linearGradient>
<linearGradient id="paint2_linear_8_86" x1="613.263" y1="63.5683" x2="649.108" y2="63.5683" gradientUnits="userSpaceOnUse">
<stop offset="0.09192" stop-color="#6CC04A"/>
<stop offset="0.2864" stop-color="#66B848"/>
<stop offset="0.5968" stop-color="#54A044"/>
<stop offset="0.8624" stop-color="#41873F"/>
</linearGradient>
<linearGradient id="paint3_linear_8_86" x1="638.274" y1="73.7648" x2="649.036" y2="73.7648" gradientUnits="userSpaceOnUse">
<stop offset="0.09192" stop-color="#6CC04A"/>
<stop offset="0.2864" stop-color="#66B848"/>
<stop offset="0.5968" stop-color="#54A044"/>
<stop offset="0.8624" stop-color="#41873F"/>
</linearGradient>
<linearGradient id="paint4_linear_8_86" x1="613.263" y1="78.4313" x2="649.107" y2="78.4313" gradientUnits="userSpaceOnUse">
<stop offset="0.09192" stop-color="#6CC04A"/>
<stop offset="0.2864" stop-color="#66B848"/>
<stop offset="0.5968" stop-color="#54A044"/>
<stop offset="0.8624" stop-color="#41873F"/>
</linearGradient>
<linearGradient id="paint5_linear_8_86" x1="654.329" y1="49.8616" x2="645.243" y2="97.46" gradientUnits="userSpaceOnUse">
<stop stop-color="#41873F"/>
<stop offset="0.3288" stop-color="#418B3D"/>
<stop offset="0.6352" stop-color="#419637"/>
<stop offset="0.9319" stop-color="#3FA92D"/>
<stop offset="1" stop-color="#3FAE2A"/>
</linearGradient>
<linearGradient id="paint6_linear_8_86" x1="1055.59" y1="34.4576" x2="1055.59" y2="90.7031" gradientUnits="userSpaceOnUse">
<stop stop-color="#97D9F6"/>
<stop offset="0.92" stop-color="#0F80CC"/>
<stop offset="1" stop-color="#0F80CC"/>
</linearGradient>
<clipPath id="clip0_8_86">
<rect width="163" height="100" fill="white" transform="translate(571 21)"/>
</clipPath>
</defs>
</svg>
