<svg width="318" height="162" viewBox="0 0 318 162" fill="none" xmlns="http://www.w3.org/2000/svg">
<path d="M300.201 8.3186H265.959C264.853 8.32169 263.794 8.76231 263.012 9.54419C262.23 10.3261 261.789 11.3856 261.786 12.4914V50.2548C261.789 51.3605 262.23 52.4201 263.012 53.202C263.794 53.9839 264.853 54.4245 265.959 54.4276H288.513C288.255 43.2053 292.089 21.4274 300.201 8.3186Z" fill="#0F80CC"/>
<path d="M298.957 9.53668H265.959C265.176 9.53771 264.425 9.84934 263.871 10.4032C263.317 10.9571 263.005 11.708 263.004 12.4913V47.4989C271.47 44.306 280.406 42.5384 289.45 42.2678C291.842 31.1466 295.019 20.2088 298.957 9.53668Z" fill="url(#paint0_linear_21_169)"/>
<path d="M308.188 7.08294C305.849 4.99169 303.003 5.8317 300.197 8.3186C299.782 8.6889 299.367 9.09819 298.953 9.53671C293.674 15.7808 290.023 23.2355 288.328 31.2347C288.851 32.3766 289.265 33.5656 289.563 34.7857C289.633 35.0586 289.698 35.3159 289.758 35.5341C289.879 36.0506 289.953 36.3858 289.953 36.3858C289.953 36.3858 289.91 36.2241 289.733 35.7115L289.618 35.3802C289.595 35.3185 289.57 35.2574 289.544 35.197C289.232 34.47 288.374 32.9362 287.985 32.2735C287.659 33.2344 287.371 34.1328 287.131 34.9456C287.94 36.686 288.534 38.5186 288.901 40.4027C288.901 40.4027 288.842 40.1786 288.567 39.399C288.039 38.2604 287.454 37.1494 286.813 36.0701C286.399 37.1393 286.223 38.286 286.299 39.4302C286.728 40.286 287.051 41.1912 287.26 42.1256C287.911 44.6261 288.363 47.6724 288.363 47.6724L288.402 48.185C288.316 50.2678 288.358 52.3538 288.528 54.4315C288.625 56.4885 289.008 58.5221 289.667 60.4733L290.017 60.2784C289.201 57.3457 288.886 54.2962 289.086 51.2585C289.453 44.8186 290.724 38.4623 292.863 32.3768C296.78 22.0316 302.218 13.729 307.188 9.76864C302.655 13.8615 296.519 27.1146 294.681 32.0221C292.746 37.075 291.276 42.2939 290.288 47.6139C291.463 44.6449 293.764 42.2603 296.689 40.9796C296.689 40.9796 299.092 38.0152 301.9 33.782C300.086 34.1604 298.293 34.6373 296.531 35.2106C295.167 35.7836 294.798 35.9785 294.798 35.9785C297.403 34.4101 300.154 33.1 303.013 32.0669C308.229 23.852 313.912 12.1873 308.19 7.0732" fill="#003B57"/>
<path d="M219.726 27.0366C219.625 25.2084 220.134 23.4797 219.319 22.0589C217.286 18.502 212.207 16.4712 202.045 16.4712V16.3679V16.4692C190.868 16.4692 186.093 18.502 184.062 22.0569C183.371 23.6216 183.058 25.3267 183.148 27.0346C182.773 28.5976 182.602 30.2027 182.639 31.8096C182.943 34.0451 183.148 36.2806 183.452 38.3114C183.756 40.0382 186.196 41.3596 186.5 42.989C187.11 47.3586 190.971 49.3894 202.146 49.3894V49.8981H201.952V49.3894C212.112 49.3894 216.374 47.3566 216.99 42.989C217.185 41.3635 219.225 40.0421 219.524 38.3114C219.828 36.2786 219.931 34.0432 220.235 31.8096C220.233 30.2052 220.062 28.6054 219.726 27.0366Z" fill="#EFCCA3"/>
<path d="M201.538 28.662C203.201 28.814 204.735 29.6177 205.807 30.8975C207.229 32.1176 209.566 32.9303 210.582 34.0471C211.818 35.0721 212.764 36.4033 213.326 37.908C213.714 39.3326 213.919 40.8011 213.936 42.2776C213.936 42.7863 214.24 42.685 215.053 42.2776C216.662 41.2951 218.104 40.0598 219.321 38.6194C219.017 40.3462 216.883 41.8703 216.68 43.4918C216.07 47.8614 211.808 49.9936 201.338 49.9936H201.948" fill="#CCAC8D"/>
<path d="M208.042 25.2085C208.45 26.5299 209.769 31.1022 207.128 29.5781C208.092 30.3349 208.742 31.42 208.956 32.6263C209.084 33.2731 209.388 33.8719 209.835 34.3563C210.283 34.8407 210.855 35.1917 211.49 35.3704C213.245 35.6306 215.032 35.1926 216.468 34.1504C217.31 33.3429 217.888 32.2986 218.124 31.1556C218.36 30.0127 218.243 28.8251 217.789 27.7499C217.48 26.8745 216.92 26.1093 216.18 25.5493C215.439 24.9893 214.551 24.6593 213.624 24.6004C211.708 24.0897 207.635 23.6844 208.042 25.2085Z" fill="#CCAC8D"/>
<path d="M213.224 33.8444C215.301 33.8444 216.984 32.1611 216.984 30.0848C216.984 28.0084 215.301 26.3252 213.224 26.3252C211.148 26.3252 209.465 28.0084 209.465 30.0848C209.465 32.1611 211.148 33.8444 213.224 33.8444Z" fill="black"/>
<path d="M212.207 29.3734C212.768 29.3734 213.222 28.9188 213.222 28.358C213.222 27.7972 212.768 27.3426 212.207 27.3426C211.646 27.3426 211.192 27.7972 211.192 28.358C211.192 28.9188 211.646 29.3734 212.207 29.3734Z" fill="white"/>
<path d="M207.432 29.8821C209.344 31.2232 211.114 32.7552 212.716 34.4544C214.544 36.7932 214.544 37.1985 214.544 37.1985L213.223 37.8086C212.235 35.8808 210.808 34.2119 209.058 32.9361C206.719 31.6147 206.417 30.498 206.417 30.498L207.432 29.8821Z" fill="#EFCCA3"/>
<path d="M201.642 28.662C199.892 28.8096 198.261 29.6071 197.069 30.8975C195.647 32.1176 193.107 32.9303 192.197 34.0471C190.93 35.0653 189.949 36.3959 189.352 37.908C188.963 39.3326 188.758 40.8011 188.742 42.2776C188.742 42.7863 188.843 42.8877 187.521 42.2776C185.888 41.3279 184.442 40.0882 183.253 38.6194C183.557 40.3462 185.691 41.8703 185.894 43.4918C186.504 47.7601 190.766 49.8923 201.236 49.8923H201.948" fill="#CCAC8D"/>
<path d="M211.394 35.6725C210.229 34.126 208.726 32.8648 207.001 31.9846C205.276 31.1043 203.373 30.6279 201.437 30.5916C199.503 30.6401 197.604 31.1217 195.881 32.0011C194.158 32.8804 192.654 34.135 191.48 35.6725C190.698 36.4869 190.109 37.4668 189.757 38.5397C189.405 39.6126 189.299 40.7509 189.447 41.8703C189.447 50.9136 192.596 48.1694 194.731 49.2881C196.856 49.9973 199.116 50.206 201.336 49.8981C203.555 50.2107 205.816 50.0019 207.941 49.2881C210.075 48.1714 213.224 50.9136 213.224 41.8703C213.476 40.767 213.44 39.6175 213.12 38.5321C212.799 37.4467 212.205 36.462 211.394 35.6725Z" fill="#56332B"/>
<path d="M201.234 33.133C201.158 34.8261 200.85 36.5008 200.32 38.1107L201.437 37.8066L201.234 33.133Z" fill="#442823"/>
<path d="M201.538 33.133C201.615 34.8261 201.923 36.5008 202.452 38.1107L201.336 37.8066L201.538 33.133Z" fill="#442823"/>
<path d="M197.983 32.1176C197.576 31.1021 199.1 29.4767 201.54 29.4767C203.98 29.4767 205.503 31.1021 205.097 32.1176C204.692 33.133 203.064 33.439 201.54 33.439C199.913 33.437 198.389 33.133 197.983 32.1176Z" fill="#56332B"/>
<path d="M201.538 33.133C201.538 32.9381 202.961 32.9381 203.774 32.4216C203.774 32.4216 202.148 32.9303 201.842 32.7257C201.632 32.5397 201.489 32.2897 201.435 32.0143C201.381 32.2897 201.238 32.5397 201.028 32.7257C200.724 32.9206 198.894 32.4216 198.894 32.4216C199.69 32.5976 200.472 32.8355 201.232 33.133V33.9457C201.169 35.2697 201.234 36.5967 201.427 37.908C201.731 38.3153 201.622 35.0625 201.622 33.9457C201.55 33.6811 201.522 33.4067 201.538 33.133Z" fill="black"/>
<path d="M201.538 38.9234C202.687 39.0766 203.774 39.5327 204.688 40.2448C203.893 39.215 202.789 38.467 201.538 38.1107C200.104 38.4221 198.836 39.2556 197.981 40.4495C198.983 39.589 200.225 39.0563 201.538 38.9234Z" fill="#7F4A41"/>
<path d="M201.336 46.4367C199.742 46.3487 198.168 46.0411 196.658 45.5227C196.354 45.4213 196.048 45.624 195.744 45.5227C193.289 44.8269 191.118 43.3683 189.546 41.3577V41.765C189.546 50.8083 192.696 48.0641 194.83 49.1828C196.955 49.892 199.216 50.1008 201.435 49.7929C203.654 50.1055 205.916 49.8966 208.04 49.1828C210.174 48.0661 213.324 50.8083 213.324 41.765V40.851C211.82 43.0597 209.595 44.6774 207.031 45.4272C206.727 45.5285 206.218 45.3258 205.914 45.3258C204.463 45.9571 202.914 46.3329 201.336 46.4367Z" fill="#442823"/>
<path d="M197.171 41.5643C197.171 41.5643 196.054 44.8152 196.867 46.2418L195.851 45.8345C196.185 44.3803 196.626 42.953 197.171 41.5643ZM205.705 41.5643C205.705 41.5643 206.822 44.8152 206.009 46.2418L207.031 45.8345C206.744 44.3674 206.3 42.9357 205.705 41.5643Z" fill="#442823"/>
<path d="M194.528 25.2084C194.121 26.5298 192.801 31.1021 195.442 29.578C194.479 30.3349 193.828 31.42 193.614 32.6262C193.486 33.2731 193.182 33.8719 192.735 34.3563C192.287 34.8407 191.715 35.1917 191.08 35.3704C189.324 35.6349 187.534 35.1996 186.095 34.1581C185.252 33.3507 184.675 32.3063 184.439 31.1634C184.203 30.0205 184.319 28.8328 184.773 27.7577C185.082 26.8823 185.642 26.117 186.382 25.5571C187.123 24.9971 188.012 24.6671 188.938 24.6081C190.872 24.0897 194.935 23.6843 194.528 25.2084Z" fill="#CCAC8D"/>
<path d="M201.437 38.1107C202.697 38.4652 203.822 39.1854 204.672 40.1801C205.522 41.1747 206.058 42.3991 206.212 43.6984V43.5035C206.18 42.1541 205.69 40.8557 204.822 39.8218C203.954 38.7879 202.761 38.08 201.437 37.8145C200.105 38.0627 198.901 38.7658 198.03 39.8034C197.159 40.841 196.676 42.1489 196.662 43.5035V43.6984C196.833 42.4052 197.375 41.1892 198.222 40.1976C199.07 39.2059 200.186 38.481 201.437 38.1107Z" fill="black"/>
<path d="M202.4 32.0939C202.563 32.052 202.626 31.7535 202.542 31.4273C202.458 31.101 202.258 30.8706 202.095 30.9125C201.933 30.9544 201.869 31.2529 201.953 31.5791C202.037 31.9053 202.237 32.1358 202.4 32.0939Z" fill="#331712"/>
<path d="M200.713 31.6112C200.813 31.2894 200.764 30.9882 200.604 30.9385C200.443 30.8887 200.232 31.1092 200.133 31.431C200.033 31.7528 200.082 32.054 200.242 32.1038C200.403 32.1535 200.614 31.933 200.713 31.6112Z" fill="#331712"/>
<path d="M189.55 33.8444C191.626 33.8444 193.31 32.1611 193.31 30.0848C193.31 28.0084 191.626 26.3252 189.55 26.3252C187.474 26.3252 185.791 28.0084 185.791 30.0848C185.791 32.1611 187.474 33.8444 189.55 33.8444Z" fill="black"/>
<path d="M190.566 29.3734C191.127 29.3734 191.581 28.9188 191.581 28.358C191.581 27.7972 191.127 27.3426 190.566 27.3426C190.005 27.3426 189.55 27.7972 189.55 28.358C189.55 28.9188 190.005 29.3734 190.566 29.3734Z" fill="white"/>
<path d="M202.548 30.0848C202.548 30.0848 201.533 30.4921 201.328 30.5935C200.9 30.4803 200.49 30.3091 200.108 30.0848H202.548Z" fill="#7F4A41"/>
<path d="M195.142 29.8821C193.23 31.2232 191.46 32.7552 189.858 34.4544C188.03 36.7932 188.03 37.1985 188.03 37.1985L189.351 37.8086C190.339 35.8808 191.766 34.2119 193.516 32.9361C195.855 31.6147 196.157 30.498 196.157 30.498L195.142 29.8821Z" fill="#EFCCA3"/>
<path d="M187.72 23.0743C187.012 24.949 185.686 26.5261 183.96 27.5453C185.038 27.4176 186.027 26.8842 186.725 26.0537C187.423 25.2232 187.779 24.1578 187.72 23.0743ZM214.647 23.0743C215.355 24.949 216.681 26.5261 218.407 27.5453C217.329 27.4176 216.341 26.8842 215.642 26.0537C214.944 25.2232 214.588 24.1578 214.647 23.0743ZM207.635 28.9661C206.001 27.4037 203.89 26.437 201.64 26.2219H201.944C200.818 26.2084 199.705 26.448 198.684 26.923C197.664 27.398 196.764 28.0962 196.05 28.9661C197.727 27.639 199.805 26.9221 201.944 26.9333C203.99 27.0804 205.958 27.7833 207.635 28.9661ZM204.587 23.3784C203.843 22.4002 202.751 21.7456 201.538 21.5502H201.842C201.234 21.5708 200.642 21.7504 200.125 22.0712C199.608 22.392 199.184 22.8427 198.895 23.3784C199.666 22.5684 200.725 22.0938 201.842 22.057C202.367 22.0693 202.884 22.1936 203.357 22.4215C203.83 22.6493 204.249 22.9756 204.587 23.3784ZM189.55 36.5866C188.485 37.1352 187.258 37.2799 186.095 36.9939H185.689C184.885 36.165 184.292 35.1541 183.962 34.0471C184.384 35.1109 185.202 35.9698 186.244 36.4434C187.286 36.9169 188.471 36.9683 189.55 36.5866ZM213.123 36.5866C214.188 37.1352 215.415 37.2799 216.579 36.9939H216.171C216.769 36.7545 217.287 36.3506 217.664 35.8291C218.042 35.3075 218.264 34.6897 218.305 34.0471C218.149 34.5658 217.888 35.0466 217.537 35.4596C217.187 35.8726 216.754 36.2088 216.268 36.4471C215.782 36.6855 215.251 36.8209 214.71 36.8449C214.169 36.8689 213.629 36.781 213.123 36.5866Z" fill="#CCAC8D"/>
<path d="M191.887 22.8716C193.338 22.5867 194.837 22.6535 196.257 23.0665C198.085 23.6766 196.664 26.1147 196.968 26.2161C197.554 25.6825 198.246 25.2797 199 25.0344C199.753 24.7891 200.55 24.7069 201.338 24.7933C204.793 24.9882 205.199 26.5201 205.707 26.2161C206.216 26.0212 205.199 21.9478 210.482 22.8638C210.482 22.8638 205.097 21.4411 205.3 25.302C204.188 24.5755 202.896 24.1725 201.568 24.1381C200.24 24.1037 198.929 24.4392 197.781 25.1071C197.781 25.1071 198.897 21.3475 191.887 22.8716ZM190.464 17.5919C190.464 17.5919 185.787 23.3842 185.181 25.6178C184.469 27.8532 183.96 37.2005 183.352 38.5219L181.218 29.3734L185.181 19.8234L190.464 17.5919ZM212.207 17.5919C212.207 17.5919 216.885 23.3842 217.491 25.6178C218.202 27.8532 218.711 37.2005 219.319 38.5219L221.453 29.3734L217.491 19.8234L212.207 17.5919Z" fill="#CCAC8D"/>
<path d="M211.903 17.5918C214.739 20.0012 216.937 23.0724 218.303 26.5337C219.726 31.3087 219.116 37.2024 220.235 37.9138C221.86 38.9292 223.587 32.8328 224.197 32.2248C225.111 31.2093 228.261 28.5665 228.465 28.0598C228.67 27.5531 222.166 20.4393 219.219 19.0165C215.967 17.3833 211.708 17.1806 211.903 17.5918Z" fill="#56332B"/>
<path d="M216.171 20.1255C219.769 25.0297 221.789 30.9123 221.964 36.992L224.303 32.217C222.549 27.6195 219.768 23.4836 216.171 20.1255Z" fill="#442823"/>
<path d="M190.464 17.5918C187.628 20.0012 185.43 23.0724 184.064 26.5337C182.641 31.3087 183.251 37.2024 182.132 37.9138C180.507 38.9292 178.78 32.8328 178.17 32.2248C177.256 31.2093 174.107 28.5665 173.902 28.0598C173.697 27.5531 180.201 20.4393 183.148 19.0165C186.401 17.3833 190.659 17.1806 190.464 17.5918Z" fill="#56332B"/>
<path d="M186.196 20.1255C182.599 25.0297 180.579 30.9123 180.404 36.992L178.069 32.2092C179.822 27.6148 182.602 23.4818 186.196 20.1255Z" fill="#442823"/>
<path d="M182.945 37.0952C183.106 38.1768 183.486 39.2141 184.062 40.1434C184.773 40.8548 184.257 39.5334 184.257 39.5334C184.257 39.5334 183.545 39.1261 183.647 36.1812C183.748 33.2363 182.945 37.0952 182.945 37.0952ZM219.524 37.0952C219.363 38.1768 218.983 39.2141 218.407 40.1434C217.695 40.8548 218.212 39.5334 218.212 39.5334C218.212 39.5334 218.923 39.1261 218.822 36.1812C218.711 33.3357 219.524 37.0952 219.524 37.0952Z" fill="#CCAC8D"/>
<path d="M197.069 35.6725C197.237 35.6725 197.373 35.5364 197.373 35.3685C197.373 35.2006 197.237 35.0645 197.069 35.0645C196.902 35.0645 196.765 35.2006 196.765 35.3685C196.765 35.5364 196.902 35.6725 197.069 35.6725Z" fill="#442823"/>
<path d="M195.037 37.8066C195.205 37.8066 195.341 37.6705 195.341 37.5026C195.341 37.3347 195.205 37.1985 195.037 37.1985C194.869 37.1985 194.733 37.3347 194.733 37.5026C194.733 37.6705 194.869 37.8066 195.037 37.8066Z" fill="#442823"/>
<path d="M194.427 35.6725C194.595 35.6725 194.731 35.5364 194.731 35.3685C194.731 35.2006 194.595 35.0645 194.427 35.0645C194.259 35.0645 194.123 35.2006 194.123 35.3685C194.123 35.5364 194.259 35.6725 194.427 35.6725Z" fill="#442823"/>
<path d="M205.401 35.6725C205.569 35.6725 205.705 35.5364 205.705 35.3685C205.705 35.2006 205.569 35.0645 205.401 35.0645C205.233 35.0645 205.097 35.2006 205.097 35.3685C205.097 35.5364 205.233 35.6725 205.401 35.6725Z" fill="#442823"/>
<path d="M207.331 37.8066C207.499 37.8066 207.635 37.6705 207.635 37.5026C207.635 37.3347 207.499 37.1985 207.331 37.1985C207.163 37.1985 207.027 37.3347 207.027 37.5026C207.027 37.6705 207.163 37.8066 207.331 37.8066Z" fill="#442823"/>
<path d="M207.941 35.6725C208.109 35.6725 208.245 35.5364 208.245 35.3685C208.245 35.2006 208.109 35.0645 207.941 35.0645C207.773 35.0645 207.637 35.2006 207.637 35.3685C207.637 35.5364 207.773 35.6725 207.941 35.6725Z" fill="#442823"/>
<g clip-path="url(#clip0_21_169)">
<path d="M236.553 161.168C236.015 161.168 235.513 161.024 235.047 160.773L230.276 157.94C229.559 157.545 229.918 157.402 230.133 157.33C231.101 157.007 231.281 156.935 232.285 156.362C232.393 156.29 232.536 156.326 232.644 156.398L236.302 158.585C236.446 158.657 236.625 158.657 236.733 158.585L251.044 150.3C251.188 150.228 251.26 150.084 251.26 149.905V133.37C251.26 133.19 251.188 133.047 251.044 132.975L236.733 124.726C236.589 124.654 236.41 124.654 236.302 124.726L221.991 132.975C221.847 133.047 221.775 133.226 221.775 133.37V149.905C221.775 150.049 221.847 150.228 221.991 150.3L225.901 152.559C228.017 153.635 229.344 152.38 229.344 151.125V134.805C229.344 134.589 229.523 134.374 229.774 134.374H231.603C231.819 134.374 232.034 134.553 232.034 134.805V151.125C232.034 153.958 230.492 155.608 227.801 155.608C226.977 155.608 226.331 155.608 224.501 154.711L220.735 152.559C219.803 152.022 219.229 151.017 219.229 149.941V133.406C219.229 132.33 219.803 131.325 220.735 130.787L235.047 122.502C235.944 122 237.163 122 238.06 122.502L252.371 130.787C253.304 131.325 253.878 132.33 253.878 133.406V149.941C253.878 151.017 253.304 152.022 252.371 152.559L238.06 160.845C237.593 161.06 237.056 161.168 236.554 161.168H236.553ZM240.965 149.798C234.688 149.798 233.397 146.928 233.397 144.489C233.397 144.274 233.576 144.059 233.827 144.059H235.693C235.908 144.059 236.087 144.202 236.087 144.418C236.374 146.318 237.199 147.251 241.001 147.251C244.014 147.251 245.306 146.569 245.306 144.955C245.306 144.023 244.947 143.342 240.248 142.875C236.338 142.48 233.899 141.62 233.899 138.499C233.899 135.594 236.338 133.872 240.427 133.872C245.018 133.872 247.278 135.45 247.565 138.893C247.565 139.001 247.529 139.109 247.458 139.216C247.386 139.288 247.278 139.36 247.17 139.36H245.305C245.126 139.36 244.947 139.216 244.911 139.037C244.48 137.064 243.368 136.419 240.427 136.419C237.127 136.419 236.733 137.567 236.733 138.427C236.733 139.467 237.199 139.79 241.647 140.364C246.059 140.938 248.139 141.763 248.139 144.848C248.103 148.004 245.521 149.798 240.965 149.798Z" fill="#539E43"/>
<path d="M192.148 96.4971C192.148 95.8516 191.789 95.2414 191.216 94.9187L176.007 86.1669C175.756 86.0232 175.469 85.9515 175.182 85.9155H175.039C174.752 85.9155 174.465 86.0232 174.214 86.1669L159.006 94.9187C158.431 95.2414 158.073 95.8513 158.073 96.4971L158.109 120.027C158.109 120.349 158.288 120.672 158.575 120.816C158.862 120.995 159.221 120.995 159.472 120.816L168.511 115.651C169.085 115.328 169.443 114.718 169.443 114.073V103.061C169.443 102.415 169.802 101.806 170.376 101.483L174.214 99.2589C174.501 99.0795 174.824 99.0075 175.146 99.0075C175.469 99.0075 175.792 99.0795 176.043 99.2589L179.881 101.483C180.455 101.806 180.814 102.415 180.814 103.061V114.073C180.814 114.718 181.172 115.328 181.746 115.651L190.785 120.816C190.925 120.904 191.086 120.95 191.251 120.95C191.416 120.95 191.578 120.904 191.718 120.816C192.005 120.672 192.184 120.349 192.184 120.027L192.148 96.4971ZM265.248 64.1077C264.962 63.964 264.603 63.964 264.351 64.1077C264.065 64.2871 263.885 64.5738 263.885 64.8966V88.2114C263.885 88.4265 263.778 88.6416 263.562 88.7853C263.347 88.8926 263.132 88.8926 262.917 88.7853L259.115 86.5973C258.836 86.4386 258.521 86.3552 258.2 86.3552C257.879 86.3552 257.564 86.4386 257.285 86.5973L242.077 95.3851C241.503 95.7079 241.145 96.3177 241.145 96.9632V114.503C241.145 115.148 241.503 115.758 242.077 116.081L257.285 124.869C257.564 125.028 257.879 125.111 258.2 125.111C258.521 125.111 258.836 125.028 259.115 124.869L274.323 116.081C274.897 115.758 275.256 115.149 275.256 114.503V70.7792C275.256 70.0977 274.897 69.4882 274.323 69.1651L265.249 64.1077H265.248ZM263.85 108.728C263.85 108.908 263.778 109.051 263.634 109.123L258.433 112.135C258.361 112.171 258.281 112.189 258.2 112.189C258.119 112.189 258.04 112.171 257.967 112.135L252.766 109.123C252.622 109.051 252.551 108.872 252.551 108.728V102.702C252.551 102.523 252.622 102.379 252.766 102.308L257.967 99.2946C258.04 99.2591 258.119 99.2407 258.2 99.2407C258.281 99.2407 258.361 99.2591 258.433 99.2946L263.634 102.308C263.778 102.379 263.85 102.559 263.85 102.702V108.728ZM315.859 102.559C316.433 102.236 316.756 101.626 316.756 100.98V96.7122C316.756 96.0666 316.397 95.4568 315.859 95.134L300.758 86.3823C300.479 86.2235 300.164 86.1401 299.843 86.1401C299.523 86.1401 299.207 86.2235 298.929 86.3823L283.72 95.1697C283.146 95.4925 282.788 96.1023 282.788 96.7478V114.288C282.788 114.933 283.147 115.543 283.72 115.866L298.821 124.474C299.395 124.797 300.077 124.797 300.615 124.474L309.761 119.381C310.048 119.238 310.227 118.915 310.227 118.592C310.227 118.269 310.048 117.947 309.761 117.803L294.481 109.015C294.194 108.836 294.015 108.549 294.015 108.226V102.738C294.015 102.416 294.194 102.093 294.481 101.949L299.251 99.2232C299.391 99.1353 299.553 99.0887 299.718 99.0887C299.883 99.0887 300.044 99.1353 300.184 99.2232L304.955 101.949C305.242 102.129 305.421 102.415 305.421 102.738V107.043C305.421 107.365 305.6 107.688 305.887 107.832C306.027 107.919 306.189 107.966 306.354 107.966C306.519 107.966 306.68 107.919 306.82 107.832L315.859 102.559Z" fill="#333333"/>
<path d="M299.61 101.734C299.663 101.698 299.726 101.68 299.79 101.68C299.853 101.68 299.916 101.698 299.969 101.734L302.874 103.419C302.982 103.491 303.053 103.599 303.053 103.742V107.114C303.053 107.257 302.982 107.365 302.874 107.437L299.969 109.123C299.916 109.158 299.853 109.176 299.79 109.176C299.726 109.176 299.663 109.158 299.61 109.123L296.705 107.437C296.597 107.365 296.526 107.257 296.526 107.114V103.742C296.526 103.599 296.597 103.491 296.705 103.42L299.61 101.734Z" fill="#539E43"/>
<path d="M232.715 95.1698L217.543 86.454C217.394 86.3787 217.238 86.3186 217.077 86.2746L200.075 115.4C200.216 115.572 200.386 115.718 200.577 115.831L215.75 124.547C216.18 124.798 216.682 124.869 217.148 124.726L233.11 95.5288C233.002 95.3855 232.859 95.2775 232.715 95.1701V95.1698Z" fill="url(#paint1_linear_21_169)"/>
<path fill-rule="evenodd" clip-rule="evenodd" d="M215.248 83.2614L215.032 83.3691H215.319L215.248 83.2614Z" fill="url(#paint2_linear_21_169)"/>
<path fill-rule="evenodd" clip-rule="evenodd" d="M232.752 115.794C233.182 115.543 233.505 115.113 233.648 114.647L217.005 86.2386C216.574 86.1669 216.108 86.2026 215.714 86.4536L200.649 95.1341L216.897 124.761C217.133 124.723 217.363 124.65 217.579 124.546L232.751 115.794L232.752 115.794Z" fill="url(#paint3_linear_21_169)"/>
<path fill-rule="evenodd" clip-rule="evenodd" d="M234.15 115.507L234.043 115.328V115.579L234.15 115.507H234.15Z" fill="url(#paint4_linear_21_169)"/>
<path fill-rule="evenodd" clip-rule="evenodd" d="M232.751 115.794L217.615 124.51C217.401 124.619 217.171 124.692 216.933 124.725L217.22 125.263L234.007 115.543V115.328L233.576 114.61C233.505 115.113 233.182 115.543 232.751 115.794Z" fill="url(#paint5_linear_21_169)"/>
<path fill-rule="evenodd" clip-rule="evenodd" d="M232.751 115.794L217.615 124.51C217.401 124.619 217.171 124.692 216.933 124.725L217.22 125.263L234.007 115.543V115.328L233.576 114.61C233.505 115.113 233.182 115.543 232.751 115.794Z" fill="url(#paint6_linear_21_169)"/>
</g>
<path d="M88.8979 3.89795H143.469V58.4694H88.8979V3.89795Z" fill="#F5DE19"/>
<path d="M125.556 46.5319C126.021 47.4764 126.744 48.2702 127.64 48.822C128.537 49.3737 129.571 49.6608 130.624 49.6503C132.748 49.6503 134.107 48.5881 134.107 47.1166C134.107 45.3625 132.711 44.735 130.372 43.7117L129.09 43.1621C125.387 41.5854 122.931 39.6111 122.931 35.4364C122.931 31.591 125.855 28.6617 130.44 28.6617C131.925 28.5545 133.408 28.8868 134.705 29.617C136.002 30.3473 137.055 31.4433 137.734 32.7682L133.725 35.3311C133.463 34.6742 133.009 34.1121 132.421 33.7195C131.833 33.3268 131.14 33.1222 130.433 33.1327C130.124 33.1018 129.813 33.1355 129.518 33.2317C129.224 33.3278 128.952 33.4843 128.721 33.6911C128.49 33.8979 128.305 34.1506 128.177 34.4329C128.05 34.7153 127.982 35.0212 127.979 35.3311C127.979 36.8689 128.932 37.4925 131.132 38.4495L132.415 38.9991C136.773 40.8682 139.236 42.7723 139.236 47.0542C139.236 51.6714 135.609 54.2011 130.739 54.2011C128.841 54.3221 126.949 53.8912 125.291 52.9606C123.632 52.0299 122.279 50.6393 121.393 48.9564L125.556 46.5319ZM107.441 46.9763C108.246 48.4049 108.978 49.6132 110.74 49.6132C112.424 49.6132 113.488 48.9545 113.488 46.3916V28.9541H118.616V46.4598C118.616 51.7688 115.498 54.1856 110.958 54.1856C109.354 54.2733 107.761 53.8734 106.388 53.0385C105.015 52.2037 103.926 50.9729 103.266 49.508L107.441 46.9763Z" fill="black"/>
<path d="M11.5029 54.0142L7.12549 4.89795H55.2419L50.8586 54.0064L31.1545 59.4694L11.5029 54.0142Z" fill="#1572B6"/>
<path d="M31.1837 55.2947L47.1069 50.8802L50.8528 8.91479H31.1837V55.2947Z" fill="#33A9DC"/>
<path d="M31.1837 26.709H39.155L39.7047 20.5405H31.1837V14.5162H46.2883L46.1441 16.1319L44.6648 32.7333H31.1837V26.709Z" fill="white"/>
<path d="M31.2207 42.3534L31.1934 42.3612L24.485 40.5487L24.0562 35.7444H18.0085L18.8525 45.2028L31.1914 48.6292L31.2207 48.6214V42.3534Z" fill="#EBEBEB"/>
<path d="M38.6424 32.478L37.9174 40.5448L31.1992 42.3573V48.6253L43.548 45.2029L43.6396 44.1855L44.6862 32.478H38.6424Z" fill="white"/>
<path d="M31.2051 14.5162V20.5405H16.654L16.5332 19.1859L16.2584 16.1319L16.1141 14.5162H31.2051ZM31.1836 26.709V32.7333H24.5591L24.4382 31.3787L24.1654 28.3247L24.0211 26.709H31.1836Z" fill="#EBEBEB"/>
<g clip-path="url(#clip1_21_169)">
<path d="M57.7046 73.1122H3.89836C1.60179 73.1122 -0.196996 75.0876 0.0173529 77.374L5.25524 133.245C5.38484 134.628 6.24122 135.838 7.5028 136.42L29.168 146.42C30.2045 146.898 31.3985 146.898 32.4349 146.42L54.1002 136.42C55.3617 135.838 56.2181 134.628 56.3477 133.245L61.5856 77.374C61.8 75.0876 60.0011 73.1122 57.7046 73.1122Z" fill="#2F88FF" stroke="black" stroke-width="4"/>
<path d="M46.3933 86.7551H15.2096L17.1586 104.296H44.4443L42.4953 125.735L30.8014 131.582L19.1076 125.735L18.1331 115.99" stroke="white" stroke-width="4" stroke-linecap="round" stroke-linejoin="round"/>
</g>
<defs>
<linearGradient id="paint0_linear_21_169" x1="280.939" y1="10.3932" x2="280.939" y2="45.472" gradientUnits="userSpaceOnUse">
<stop stop-color="#97D9F6"/>
<stop offset="0.92" stop-color="#0F80CC"/>
<stop offset="1" stop-color="#0F80CC"/>
</linearGradient>
<linearGradient id="paint1_linear_21_169" x1="214.372" y1="107.528" x2="255.824" y2="85.0066" gradientUnits="userSpaceOnUse">
<stop offset="0.1376" stop-color="#41873F"/>
<stop offset="0.4032" stop-color="#54A044"/>
<stop offset="0.7136" stop-color="#66B848"/>
<stop offset="0.9081" stop-color="#6CC04A"/>
</linearGradient>
<linearGradient id="paint2_linear_21_169" x1="202.376" y1="83.2759" x2="230.311" y2="83.2759" gradientUnits="userSpaceOnUse">
<stop offset="0.09192" stop-color="#6CC04A"/>
<stop offset="0.2864" stop-color="#66B848"/>
<stop offset="0.5968" stop-color="#54A044"/>
<stop offset="0.8624" stop-color="#41873F"/>
</linearGradient>
<linearGradient id="paint3_linear_21_169" x1="199.201" y1="105.482" x2="234.143" y2="105.482" gradientUnits="userSpaceOnUse">
<stop offset="0.09192" stop-color="#6CC04A"/>
<stop offset="0.2864" stop-color="#66B848"/>
<stop offset="0.5968" stop-color="#54A044"/>
<stop offset="0.8624" stop-color="#41873F"/>
</linearGradient>
<linearGradient id="paint4_linear_21_169" x1="223.582" y1="115.419" x2="234.073" y2="115.419" gradientUnits="userSpaceOnUse">
<stop offset="0.09192" stop-color="#6CC04A"/>
<stop offset="0.2864" stop-color="#66B848"/>
<stop offset="0.5968" stop-color="#54A044"/>
<stop offset="0.8624" stop-color="#41873F"/>
</linearGradient>
<linearGradient id="paint5_linear_21_169" x1="199.201" y1="119.966" x2="234.143" y2="119.966" gradientUnits="userSpaceOnUse">
<stop offset="0.09192" stop-color="#6CC04A"/>
<stop offset="0.2864" stop-color="#66B848"/>
<stop offset="0.5968" stop-color="#54A044"/>
<stop offset="0.8624" stop-color="#41873F"/>
</linearGradient>
<linearGradient id="paint6_linear_21_169" x1="239.233" y1="92.1254" x2="230.381" y2="138.511" gradientUnits="userSpaceOnUse">
<stop stop-color="#41873F"/>
<stop offset="0.3288" stop-color="#418B3D"/>
<stop offset="0.6352" stop-color="#419637"/>
<stop offset="0.9319" stop-color="#3FA92D"/>
<stop offset="1" stop-color="#3FAE2A"/>
</linearGradient>
<clipPath id="clip0_21_169">
<rect width="158.9" height="97.449" fill="white" transform="translate(158 64)"/>
</clipPath>
<clipPath id="clip1_21_169">
<rect width="93.551" height="93.551" fill="white" transform="translate(0 63.3674)"/>
</clipPath>
</defs>
</svg>
